<svg width="960" height="960" viewBox="0 0 960 960" fill="none" xmlns="http://www.w3.org/2000/svg">
<rect width="960" height="960" rx="121" fill="#151515"/>
<path d="M476 750C467.716 750 461 743.284 461 735V285C461 276.716 467.716 270 476 270H650.686C687.152 270 718.219 276.953 743.886 290.859C769.553 304.609 789.116 323.75 802.576 348.281C816.192 372.656 823 400.781 823 432.656C823 464.531 816.114 492.656 802.341 517.031C788.569 541.406 768.614 560.391 742.477 573.984C716.497 587.578 685.039 594.375 648.104 594.375H542.202C533.918 594.375 527.202 587.659 527.202 579.375V528.047C527.202 519.763 533.918 513.047 542.202 513.047H631.671C651.234 513.047 667.354 509.687 680.031 502.969C692.865 496.094 702.412 486.641 708.672 474.609C715.089 462.422 718.297 448.438 718.297 432.656C718.297 416.719 715.089 402.812 708.672 390.938C702.412 378.906 692.865 369.609 680.031 363.047C667.198 356.328 650.921 352.969 631.201 352.969H577.651C569.367 352.969 562.651 359.685 562.651 367.969V735C562.651 743.284 555.935 750 547.651 750H476Z" fill="#C6BCBC"/>
<path d="M476 750C467.716 750 461 743.284 461 735V285C461 276.716 467.716 270 476 270H650.686C687.152 270 718.219 276.953 743.886 290.859C769.553 304.609 789.116 323.75 802.576 348.281C816.192 372.656 823 400.781 823 432.656C823 464.531 816.114 492.656 802.341 517.031C788.569 541.406 768.614 560.391 742.477 573.984C716.497 587.578 685.039 594.375 648.104 594.375H542.202C533.918 594.375 527.202 587.659 527.202 579.375V528.047C527.202 519.763 533.918 513.047 542.202 513.047H631.671C651.234 513.047 667.354 509.687 680.031 502.969C692.865 496.094 702.412 486.641 708.672 474.609C715.089 462.422 718.297 448.438 718.297 432.656C718.297 416.719 715.089 402.812 708.672 390.938C702.412 378.906 692.865 369.609 680.031 363.047C667.198 356.328 650.921 352.969 631.201 352.969H577.651C569.367 352.969 562.651 359.685 562.651 367.969V735C562.651 743.284 555.935 750 547.651 750H476Z" fill="url(#paint0_linear_301_55)" fill-opacity="0.5"/>
<path d="M417.068 130C434.179 130 446.624 146.242 442.173 162.764L262.745 828.764C259.688 840.113 249.395 848 237.64 848H183.932C166.821 848 154.376 831.758 158.827 815.236L338.255 149.236C341.312 137.887 351.605 130 363.36 130H417.068Z" fill="#C6BCBC"/>
<path d="M417.068 130C434.179 130 446.624 146.242 442.173 162.764L262.745 828.764C259.688 840.113 249.395 848 237.64 848H183.932C166.821 848 154.376 831.758 158.827 815.236L338.255 149.236C341.312 137.887 351.605 130 363.36 130H417.068Z" fill="url(#paint1_linear_301_55)" fill-opacity="0.5"/>
<defs>
<linearGradient id="paint0_linear_301_55" x1="522.937" y1="769.721" x2="729.709" y2="203.52" gradientUnits="userSpaceOnUse">
<stop stop-color="#FF0000"/>
<stop offset="1" stop-color="#3518E1"/>
</linearGradient>
<linearGradient id="paint1_linear_301_55" x1="201.5" y1="877.5" x2="642" y2="207" gradientUnits="userSpaceOnUse">
<stop stop-color="#FF0000"/>
<stop offset="1" stop-color="#3518E1"/>
</linearGradient>
</defs>
</svg>
